# xmcd
# 
# Track frame offsets:
#     150
#     47442
#     92689
#     137788
#     182856
#     227945
# 
# Disc length: 3649
# 
# Revision: 0
# Processed by: cddbd v1.5.2PL0 Copyright (c) Steve Scherf et al.
# Submitted via: BonkEnc v1.0.15
# 
DISCID=4b0e3f06
DTITLE=Thirkell - Insomnio: Musicoterapia
DYEAR=2003
DGENRE=New Age
TTITLE0=A deep sleep
TTITLE1=Reverie
TTITLE2=Dreams
TTITLE3=Letting go
TTITLE4=Drifting by
TTITLE5=Daybreak
EXTD=
EXTT0=
EXTT1=
EXTT2=
EXTT3=
EXTT4=
EXTT5=
PLAYORDER=
